<svg width="87" height="90" viewBox="0 0 87 90" fill="none" xmlns="http://www.w3.org/2000/svg">
<path fill-rule="evenodd" clip-rule="evenodd" d="M73.4156 1.68197C70.8839 0.264334 68.1886 0.121535 65.3393 0.477634C62.6331 0.815857 59.3406 1.67164 55.3838 2.70006L46.1335 5.10405C42.1784 6.13177 38.8853 6.98749 36.3656 8.00762C33.7163 9.08022 31.4257 10.5213 29.9399 13.0174C28.4447 15.5292 28.2962 18.2144 28.6689 21.0191C29.0202 23.6635 29.9069 26.8725 30.9632 30.6956L33.4499 39.6967C34.5065 43.5219 35.3928 46.7304 36.451 49.189C37.5746 51.7995 39.0754 54.0219 41.622 55.4479C44.1536 56.8655 46.849 57.0083 49.6982 56.6522C52.4044 56.314 55.6969 55.4582 59.6536 54.4298L68.9042 52.0258C72.8592 50.9981 76.1523 50.1424 78.672 49.1222C81.3212 48.0496 83.6118 46.6085 85.0976 44.1125C86.5929 41.6007 86.7413 38.9155 86.3687 36.1108C86.0174 33.4664 85.1307 30.2574 84.0743 26.4342L81.5876 17.433C80.531 13.608 79.6447 10.3995 78.5865 7.94084C77.463 5.33032 75.9621 3.10796 73.4156 1.68197ZM56.8886 9.41237C61.1279 8.31066 63.9841 7.5755 66.1919 7.29956C68.3078 7.03513 69.3204 7.26827 70.0566 7.68053C70.7779 8.08444 71.4667 8.78862 72.2716 10.6588C73.1205 12.6312 73.8871 15.3773 75.025 19.4961L77.3828 28.0305C78.5209 32.1503 79.2723 34.8989 79.5536 37.0162C79.8207 39.0271 79.5816 39.9382 79.1901 40.5959C78.7892 41.2693 78.0624 41.9519 76.0919 42.7497C74.0398 43.5806 71.1885 44.3287 66.9483 45.4307L58.1489 47.7175C53.9097 48.8192 51.0534 49.5544 48.8456 49.8303C46.7298 50.0947 45.7172 49.8616 44.981 49.4493C44.2597 49.0454 43.5708 48.3412 42.766 46.4711C41.917 44.4987 41.1504 41.7526 40.0126 37.6338L37.6548 29.0993C36.5166 24.9795 35.7653 22.2309 35.484 20.1136C35.2168 18.1028 35.456 17.1916 35.8474 16.534C36.2483 15.8605 36.9751 15.1779 38.9456 14.3801C40.9977 13.5493 43.849 12.8011 48.0892 11.6992L56.8886 9.41237Z" fill="#1C274C"/>
<path fill-rule="evenodd" clip-rule="evenodd" d="M5.16903 11.655C3.33965 11.1474 1.4452 12.219 0.937642 14.0483C0.430086 15.8777 1.50163 17.7722 3.33101 18.2797L11.1396 20.4462C13.0903 20.9874 14.5429 22.4609 15.0392 24.2572L23.9827 56.6298C23.6391 56.6974 23.2957 56.7757 22.9528 56.8648C13.8913 59.2197 8.35413 68.3351 10.8416 77.339C13.3172 86.2997 22.7298 91.4677 31.7554 89.1221C39.6539 87.0695 44.8748 79.8802 44.4373 72.1055L83.0313 62.0757C84.8688 61.5981 85.9712 59.7215 85.4937 57.8841C85.0162 56.0466 83.1395 54.9442 81.3021 55.4217L42.6273 65.4725C40.2973 60.9472 36.0183 57.7999 31.139 56.716L21.6659 22.4264C20.5058 18.227 17.18 14.9874 12.9776 13.8215L5.16903 11.655ZM24.682 63.5188C30.2358 62.0754 35.8088 65.2989 37.2398 70.4786C38.6588 75.615 35.544 81.0342 30.0262 82.4682C24.4724 83.9115 18.8994 80.688 17.4684 75.5083C16.0494 70.3719 19.1642 64.9527 24.682 63.5188Z" fill="#1C274C"/>
</svg>
