<svg width="99" height="100" viewBox="0 0 99 100" fill="none" xmlns="http://www.w3.org/2000/svg">
<path fill-rule="evenodd" clip-rule="evenodd" d="M7.8999 41.7829C7.3778 44.4412 7.10416 47.1887 7.10416 50C7.10416 51.0378 7.14145 52.0669 7.21476 53.0861C7.31112 53.1644 7.4125 53.2462 7.51865 53.3311C8.52764 54.1381 9.95013 55.2109 11.6044 56.2781C15.0764 58.5177 18.9373 60.3125 22 60.3125C23.9965 60.3125 26.4174 59.5393 28.9573 58.2604C30.5007 57.4833 31.9757 56.5772 33.2781 55.6941C32.6526 53.9121 32.3125 51.9958 32.3125 50C32.3125 40.5076 40.0076 32.8125 49.5 32.8125C58.9924 32.8125 66.6875 40.5076 66.6875 50C66.6875 53.5339 65.621 56.8186 63.7923 59.55C64.8132 60.0359 65.8683 60.3125 66.9411 60.3125C69.063 60.3125 70.0655 59.3078 72.0585 56.9484C72.1065 56.8916 72.1552 56.8339 72.2045 56.7753C73.8609 54.8104 76.2798 51.9409 80.5741 51.2835C79.9858 51.1038 79.4384 50.7639 79.002 50.2684C77.7473 48.8437 77.8851 46.6715 79.3098 45.4168L87.001 38.6433C87.8918 37.8588 89.0749 37.6187 90.1432 37.8972C89.0837 34.3338 87.5683 30.9667 85.6647 27.8633L84.014 29.514C82.6716 30.8565 80.4951 30.8565 79.1526 29.514C77.8102 28.1716 77.8102 25.9951 79.1526 24.6527L81.5541 22.2512C73.7805 13.2793 62.303 7.60419 49.5 7.60419C41.3871 7.60419 33.8065 9.88295 27.3633 13.8353L29.014 15.486C30.3564 16.8284 30.3564 19.0049 29.014 20.3474C27.6716 21.6898 25.4951 21.6898 24.1526 20.3474L21.7512 17.9459C17.1437 21.938 13.4057 26.9069 10.8592 32.5306C12.7411 32.4429 14.3458 33.8883 14.4508 35.7732L14.8113 42.2449C14.9169 44.1405 13.4659 45.7627 11.5703 45.8683C9.67478 45.9739 8.05254 44.5229 7.94694 42.6273L7.8999 41.7829ZM91.4573 43.8797L83.8536 50.5762C83.5735 50.8229 83.2645 51.0158 82.9392 51.1556C86.4033 51.2877 89.3443 52.7461 91.6608 54.4907C91.8162 53.015 91.8958 51.5168 91.8958 50C91.8958 47.9216 91.7463 45.8781 91.4573 43.8797ZM90.0656 62.3609C88.0428 60.0762 85.3387 58.0209 82.4278 58.0209C80.3058 58.0209 79.3034 59.0256 77.3104 61.3849C77.2624 61.4418 77.2137 61.4995 77.1644 61.5581C75.2833 63.7896 72.4188 67.1875 66.9411 67.1875C63.6996 67.1875 60.9123 66.0099 58.6823 64.5318C56.026 66.2138 52.8767 67.1875 49.5 67.1875C44.4781 67.1875 39.9592 65.0338 36.8167 61.5995C35.3934 62.5499 33.7739 63.5326 32.0492 64.401C29.1103 65.8808 25.5584 67.1875 22 67.1875C17.3591 67.1875 12.6201 64.9521 9.07131 62.8021C14.4993 79.9595 30.5473 92.3959 49.5 92.3959C68.6147 92.3959 84.7749 79.7459 90.0656 62.3609ZM0.229156 50C0.229156 22.7885 22.2885 0.729187 49.5 0.729187C76.7115 0.729187 98.7708 22.7885 98.7708 50C98.7708 77.2116 76.7115 99.2709 49.5 99.2709C22.2885 99.2709 0.229156 77.2116 0.229156 50ZM42.486 10.9027C43.8284 9.56025 46.0049 9.56025 47.3473 10.9027L51.9307 15.486C53.2731 16.8284 53.2731 19.0049 51.9307 20.3474C50.5882 21.6898 48.4117 21.6898 47.0693 20.3474L42.486 15.764C41.1436 14.4216 41.1436 12.2451 42.486 10.9027ZM69.8958 15.1667C71.4146 16.3058 71.7224 18.4604 70.5833 19.9792L63.7083 29.1459C62.5692 30.6646 60.4146 30.9724 58.8958 29.8334C57.377 28.6943 57.0692 26.5396 58.2083 25.0209L65.0833 15.8542C66.2224 14.3354 68.377 14.0276 69.8958 15.1667ZM45.9454 26.1937C46.4367 28.0275 45.3485 29.9124 43.5147 30.4037L37.2537 32.0813C35.4199 32.5727 33.535 31.4845 33.0437 29.6507C32.5523 27.8169 33.6406 25.932 35.4743 25.4406L41.7353 23.763C43.5691 23.2716 45.454 24.3599 45.9454 26.1937ZM21.5273 27.8792C23.2556 27.0936 25.2935 27.8578 26.0791 29.5861L28.7614 35.4869C29.547 37.2152 28.7828 39.2531 27.0545 40.0387C25.3262 40.8243 23.2883 40.0601 22.5027 38.3318L19.8204 32.4311C19.0348 30.7028 19.799 28.6648 21.5273 27.8792ZM70.6505 32.7086C72.5468 32.6195 74.1564 34.0846 74.2455 35.981L74.5498 42.4556C74.639 44.352 73.1739 45.9616 71.2775 46.0507C69.3811 46.1398 67.7715 44.6748 67.6824 42.7784L67.3781 36.3037C67.289 34.4073 68.7541 32.7977 70.6505 32.7086ZM49.5 39.6875C43.8046 39.6875 39.1875 44.3046 39.1875 50C39.1875 55.6955 43.8046 60.3125 49.5 60.3125C55.1954 60.3125 59.8125 55.6955 59.8125 50C59.8125 44.3046 55.1954 39.6875 49.5 39.6875ZM26.3224 44.9352C27.8545 46.0564 28.1874 48.2073 27.0662 49.7393L23.2381 54.9699C22.1168 56.5019 19.9659 56.8349 18.4339 55.7136C16.9019 54.5924 16.5689 52.4415 17.6902 50.9095L21.5183 45.6789C22.6396 44.1469 24.7904 43.8139 26.3224 44.9352Z" fill="#1C274C"/>
</svg>
