<svg width="100" height="100" viewBox="0 0 100 100" fill="none" xmlns="http://www.w3.org/2000/svg">
<path fill-rule="evenodd" clip-rule="evenodd" d="M68.3334 25.9375C65.1692 25.9375 62.6042 28.5026 62.6042 31.6667C62.6042 34.8308 65.1692 37.3959 68.3334 37.3959C71.4975 37.3959 74.0625 34.8308 74.0625 31.6667C74.0625 28.5026 71.4975 25.9375 68.3334 25.9375ZM55.7292 31.6667C55.7292 24.7056 61.3723 19.0625 68.3334 19.0625C75.2944 19.0625 80.9375 24.7056 80.9375 31.6667C80.9375 38.6278 75.2944 44.2709 68.3334 44.2709C61.3723 44.2709 55.7292 38.6278 55.7292 31.6667Z" fill="#1C274C"/>
<path fill-rule="evenodd" clip-rule="evenodd" d="M49.737 0.729188H50.263C60.8431 0.729129 69.1346 0.729082 75.6039 1.59886C82.2256 2.48912 87.4507 4.34693 91.5519 8.44815C95.6531 12.5494 97.5109 17.7745 98.4012 24.3962C99.271 30.8655 99.2709 39.1569 99.2708 49.7371V50.263C99.2709 60.8431 99.271 69.1346 98.4012 75.6039C97.5109 82.2256 95.6531 87.4507 91.5519 91.5519C87.4507 95.6531 82.2256 97.5109 75.6039 98.4012C69.1346 99.271 60.8431 99.2709 50.263 99.2708H49.7371C39.1569 99.2709 30.8655 99.271 24.3962 98.4012C17.7745 97.5109 12.5494 95.6531 8.44815 91.5519C4.34693 87.4507 2.48912 82.2256 1.59886 75.6039C0.729082 69.1346 0.729129 60.8431 0.729188 50.263V49.737C0.729129 39.1569 0.729082 30.8655 1.59886 24.3962C2.48912 17.7745 4.34693 12.5494 8.44815 8.44815C12.5494 4.34693 17.7745 2.48912 24.3962 1.59886C30.8655 0.729082 39.1569 0.729129 49.737 0.729188ZM13.3095 86.6905C10.6986 84.0796 9.20032 80.5471 8.41255 74.6878C7.70912 69.4557 7.61776 62.7808 7.60594 53.8506L14.4584 47.8548C17.2731 45.3919 21.5153 45.5332 24.1599 48.1778L43.8211 67.8391C48.1521 72.1701 54.9697 72.7606 59.9809 69.2388L61.3476 68.2783C65.281 65.514 70.6025 65.8343 74.1759 69.0503L88.9504 82.3474C89.1112 82.4921 89.2819 82.6188 89.4601 82.7277C88.7192 84.2902 87.8065 85.5745 86.6905 86.6905C84.0796 89.3015 80.5471 90.7997 74.6878 91.5875C68.7296 92.3885 60.9002 92.3958 50 92.3958C39.0998 92.3958 31.2705 92.3885 25.3122 91.5875C19.4529 90.7997 15.9204 89.3015 13.3095 86.6905ZM25.3122 8.41255C19.4529 9.20032 15.9204 10.6986 13.3095 13.3095C10.6986 15.9204 9.20032 19.4529 8.41255 25.3122C7.74735 30.2599 7.6295 36.4979 7.60866 44.713L9.93119 42.6808C15.4698 37.8345 23.8173 38.1125 29.0213 43.3165L48.6825 62.9777C50.6511 64.9463 53.75 65.2148 56.0278 63.6139L57.3946 62.6534C63.9501 58.0463 72.8194 58.5801 78.7751 63.9402L91.4891 75.3828C91.523 75.1548 91.5558 74.9232 91.5875 74.6878C92.3885 68.7296 92.3958 60.9002 92.3958 50C92.3958 39.0998 92.3885 31.2705 91.5875 25.3122C90.7997 19.4529 89.3015 15.9204 86.6905 13.3095C84.0796 10.6986 80.5471 9.20032 74.6878 8.41255C68.7296 7.61149 60.9002 7.60419 50 7.60419C39.0998 7.60419 31.2705 7.61149 25.3122 8.41255Z" fill="#1C274C"/>
</svg>
