<svg width="109" height="95" viewBox="0 0 109 95" fill="none" xmlns="http://www.w3.org/2000/svg">
<path fill-rule="evenodd" clip-rule="evenodd" d="M54.5 0.729187C42.4763 0.729187 32.7292 10.4763 32.7292 22.5C32.7292 34.5237 42.4763 44.2709 54.5 44.2709C66.5237 44.2709 76.2709 34.5237 76.2709 22.5C76.2709 10.4763 66.5237 0.729187 54.5 0.729187ZM39.6042 22.5C39.6042 14.2733 46.2733 7.60419 54.5 7.60419C62.7268 7.60419 69.3959 14.2733 69.3959 22.5C69.3959 30.7268 62.7268 37.3959 54.5 37.3959C46.2733 37.3959 39.6042 30.7268 39.6042 22.5Z" fill="#1C274C"/>
<path d="M82 9.89585C80.1016 9.89585 78.5625 11.4349 78.5625 13.3334C78.5625 15.2318 80.1016 16.7709 82 16.7709C88.3089 16.7709 92.3125 20.9221 92.3125 24.7917C92.3125 28.6613 88.3089 32.8125 82 32.8125C80.1016 32.8125 78.5625 34.3515 78.5625 36.25C78.5625 38.1485 80.1016 39.6875 82 39.6875C90.879 39.6875 99.1875 33.5786 99.1875 24.7917C99.1875 16.0047 90.879 9.89585 82 9.89585Z" fill="#1C274C"/>
<path d="M30.4375 13.3334C30.4375 11.4349 28.8985 9.89585 27 9.89585C18.1211 9.89585 9.81254 16.0047 9.81254 24.7917C9.81254 33.5786 18.1211 39.6875 27 39.6875C28.8985 39.6875 30.4375 38.1485 30.4375 36.25C30.4375 34.3515 28.8985 32.8125 27 32.8125C20.6911 32.8125 16.6875 28.6613 16.6875 24.7917C16.6875 20.9221 20.6911 16.7709 27 16.7709C28.8985 16.7709 30.4375 15.2318 30.4375 13.3334Z" fill="#1C274C"/>
<path fill-rule="evenodd" clip-rule="evenodd" d="M54.5 51.1459C46.3221 51.1459 38.7629 53.3495 33.1478 57.0929C27.5567 60.8203 23.5625 66.3471 23.5625 72.9167C23.5625 79.4862 27.5567 85.0131 33.1478 88.7405C38.7629 92.4839 46.3221 94.6875 54.5 94.6875C62.678 94.6875 70.2371 92.4839 75.8523 88.7405C81.4434 85.0131 85.4375 79.4862 85.4375 72.9167C85.4375 66.3471 81.4434 60.8203 75.8523 57.0929C70.2371 53.3495 62.678 51.1459 54.5 51.1459ZM30.4375 72.9167C30.4375 69.361 32.5994 65.7212 36.9614 62.8132C41.2993 59.9213 47.4901 58.0209 54.5 58.0209C61.51 58.0209 67.7008 59.9213 72.0387 62.8132C76.4007 65.7212 78.5625 69.361 78.5625 72.9167C78.5625 76.4724 76.4007 80.1122 72.0387 83.0201C67.7008 85.9121 61.51 87.8125 54.5 87.8125C47.4901 87.8125 41.2993 85.9121 36.9614 83.0201C32.5994 80.1122 30.4375 76.4724 30.4375 72.9167Z" fill="#1C274C"/>
<path d="M87.809 58.4304C88.2157 56.576 90.0486 55.4023 91.903 55.809C96.3117 56.7758 100.284 58.522 103.234 60.9355C106.181 63.3469 108.354 66.6615 108.354 70.625C108.354 74.5885 106.181 77.9032 103.234 80.3145C100.284 82.728 96.3117 84.4743 91.903 85.4411C90.0486 85.8477 88.2157 84.6741 87.809 82.8197C87.4023 80.9653 88.576 79.1323 90.4304 78.7256C94.0621 77.9292 96.9644 76.5613 98.8799 74.9939C100.798 73.4243 101.479 71.8914 101.479 70.625C101.479 69.3586 100.798 67.8257 98.8799 66.2562C96.9644 64.6888 94.0621 63.3208 90.4304 62.5244C88.576 62.1177 87.4023 60.2848 87.809 58.4304Z" fill="#1C274C"/>
<path d="M17.097 55.809C18.9515 55.4023 20.7844 56.576 21.1911 58.4304C21.5977 60.2848 20.4241 62.1177 18.5697 62.5244C14.938 63.3208 12.0357 64.6888 10.1202 66.2562C8.20209 67.8257 7.52087 69.3586 7.52087 70.625C7.52087 71.8914 8.20209 73.4243 10.1202 74.9939C12.0357 76.5613 14.938 77.9292 18.5697 78.7256C20.4241 79.1323 21.5977 80.9653 21.1911 82.8197C20.7844 84.6741 18.9515 85.8477 17.097 85.4411C12.6884 84.4743 8.71576 82.728 5.76634 80.3145C2.81951 77.9032 0.645874 74.5885 0.645874 70.625C0.645874 66.6615 2.81951 63.3469 5.76634 60.9355C8.71576 58.522 12.6884 56.7758 17.097 55.809Z" fill="#1C274C"/>
</svg>
